<svg height='300px' width='300px'  fill="#000000" xmlns="http://www.w3.org/2000/svg" xmlns:xlink="http://www.w3.org/1999/xlink" version="1.1" x="0px" y="0px" viewBox="0 0 1024 1024" enable-background="new 0 0 1024 1024" xml:space="preserve"><g><g><g><path d="M868,375.6c-0.2-85.4-31.2-167.6-86.5-232.5c-52.4-61.5-127.8-104.7-207.6-118     C488.9,11,400.8,26.3,327,71.4c-71.1,43.5-125.1,111.2-152.2,189.9c-31.5,91.5-22.5,194.3,22.1,279.9c5.4,10.3,11.3,20.3,17.6,30     c8.6-15,17.3-30.1,25.9-45.1c-0.3,0-0.5,0-0.8,0c-21.9,0-38.5,25.8-25.9,45.1c9,13.9,18.1,27.8,27.1,41.7     c21.6,33.3,43.3,66.5,64.9,99.8c26.2,40.4,52.5,80.7,78.7,121.1c22.6,34.8,45.2,69.5,67.8,104.3c11,16.9,21.8,33.9,32.9,50.7     c0.2,0.2,0.3,0.5,0.5,0.7c12.6,19.3,39.2,19.3,51.8,0c9-13.9,18.1-27.8,27.1-41.7c21.6-33.3,43.3-66.5,64.9-99.8     c26.2-40.4,52.5-80.7,78.7-121.1c22.6-34.8,45.2-69.5,67.8-104.3c11-16.9,22.4-33.5,32.9-50.7c0.1-0.2,0.3-0.5,0.5-0.7     c12.6-19.4-4-45.1-25.9-45.1c0,0,0,0-0.1,0c8.6,15,17.3,30.1,25.9,45.1C847.5,513.3,867.8,444.8,868,375.6     c0-15.7-13.8-30.7-30-30c-16.3,0.7-30,13.2-30,30c0,14.6-1,29.1-2.9,43.5c0.4-2.7,0.7-5.3,1.1-8c-3.9,28.5-11.5,56.3-22.6,82.9     c1-2.4,2-4.8,3-7.2c-8,18.9-17.7,36.9-29,54c-12.7,19.3,4.1,45.1,25.9,45.1c0,0,0,0,0.1,0c-8.6-15-17.3-30.1-25.9-45.1     c-9,13.9-18.1,27.8-27.1,41.7c-21.6,33.3-43.3,66.5-64.9,99.8c-26.2,40.4-52.5,80.7-78.7,121.1c-22.6,34.8-45.2,69.5-67.8,104.3     c-11,16.9-22.4,33.5-32.9,50.7c-0.1,0.2-0.3,0.5-0.5,0.7c17.3,0,34.5,0,51.8,0c-9-13.9-18.1-27.8-27.1-41.7     c-21.6-33.3-43.3-66.5-64.9-99.8c-26.2-40.4-52.5-80.7-78.7-121.1c-22.6-34.8-45.2-69.5-67.8-104.3c-11-16.9-21.5-34.1-32.9-50.7     c-0.2-0.2-0.3-0.5-0.5-0.7c-8.6,15-17.3,30.1-25.9,45.1c0.3,0,0.5,0,0.8,0c21.8,0,38.6-25.8,25.9-45.1c-11.3-17.1-21-35.2-29-54     c1,2.4,2,4.8,3,7.2c-11.1-26.5-18.7-54.4-22.6-82.9c0.4,2.7,0.7,5.3,1.1,8c-3.8-29.2-3.8-58.8,0.1-88c-0.4,2.7-0.7,5.3-1.1,8     c3.9-28.1,11.4-55.6,22.4-81.8c-1,2.4-2,4.8-3,7.2c6.4-15,13.8-29.6,22.3-43.5c4.3-7.1,9-14,13.8-20.8c1-1.4,2.1-2.8,3.1-4.2     c0.5-0.7,1.1-1.4,1.6-2.1c3.1-4.1-4.2,5.3-1.9,2.4c2.6-3.2,5.2-6.5,7.9-9.7c10.4-12.3,21.8-23.9,33.9-34.6c3-2.6,6-5.1,9-7.6     c1.5-1.2,3.1-2.5,4.6-3.7c1.7-1.4,5.1-3.7-2.4,1.9c0.9-0.7,1.7-1.3,2.6-2c6.5-4.9,13.2-9.5,20-13.9c15.6-10,32.1-18.6,49.1-25.8     c-2.4,1-4.8,2-7.2,3c26.2-11,53.7-18.5,81.8-22.4c-2.7,0.4-5.3,0.7-8,1.1c29.5-4,59.4-4,88.9,0c-2.7-0.4-5.3-0.7-8-1.1     c28.1,3.9,55.6,11.4,81.8,22.4c-2.4-1-4.8-2-7.2-3c15,6.4,29.6,13.8,43.5,22.3c7.1,4.3,14,9,20.8,13.8c1.4,1,2.8,2.1,4.2,3.1     c0.7,0.5,1.4,1.1,2.1,1.6c4.1,3.1-5.3-4.2-2.4-1.9c3.2,2.6,6.5,5.2,9.7,7.9c12.3,10.4,23.9,21.8,34.6,33.9c2.6,3,5.1,6,7.6,9     c1.2,1.5,2.5,3.1,3.7,4.6c1.4,1.7,3.7,5.1-1.9-2.4c0.7,0.9,1.3,1.7,2,2.6c4.9,6.5,9.5,13.2,13.9,20c10,15.6,18.6,32.1,25.8,49.1     c-1-2.4-2-4.8-3-7.2c11,26.2,18.5,53.7,22.4,81.8c-0.4-2.7-0.7-5.3-1.1-8c2,14.7,3,29.6,3,44.5c0,15.7,13.8,30.7,30,30     C854.2,404.9,868,392.4,868,375.6z"></path><path d="M511.9,444.4c-6,0-12-0.4-18-1.2c2.7,0.4,5.3,0.7,8,1.1c-12-1.6-23.7-4.8-35-9.5c2.4,1,4.8,2,7.2,3     c-8.1-3.4-15.8-7.6-23.1-12.5c-1.6-1.1-3.2-2.3-4.8-3.4c-4.3-3,1.9,1.9,2.4,1.9c-0.6,0-2.1-1.7-2.5-2.1c-3.4-2.8-6.6-5.7-9.7-8.8     c-2.9-2.9-5.7-6-8.4-9.2c-0.7-0.8-1.4-1.7-2.1-2.5c-2.3-2.7,4.6,6.2,1.9,2.4c-1.3-1.8-2.6-3.5-3.8-5.3c-4.9-7.3-9-15.1-12.5-23.1     c1,2.4,2,4.8,3,7.2c-4.7-11.2-7.8-22.9-9.5-35c0.4,2.7,0.7,5.3,1.1,8c-1.5-12-1.5-24,0-36c-0.4,2.7-0.7,5.3-1.1,8     c1.6-12,4.8-23.7,9.5-35c-1,2.4-2,4.8-3,7.2c3.4-8.1,7.6-15.8,12.5-23.1c1.1-1.6,2.3-3.2,3.4-4.8c3-4.3-1.9,1.9-1.9,2.4     c0-0.6,1.7-2.1,2.1-2.5c2.8-3.4,5.7-6.6,8.8-9.7c2.9-2.9,6-5.7,9.2-8.4c0.8-0.7,1.7-1.4,2.5-2.1c2.7-2.3-6.2,4.6-2.4,1.9     c1.8-1.3,3.5-2.6,5.3-3.8c7.3-4.9,15.1-9,23.1-12.5c-2.4,1-4.8,2-7.2,3c11.2-4.7,22.9-7.8,35-9.5c-2.7,0.4-5.3,0.7-8,1.1     c12-1.5,24-1.5,36,0c-2.7-0.4-5.3-0.7-8-1.1c12,1.6,23.7,4.8,35,9.5c-2.4-1-4.8-2-7.2-3c8.1,3.4,15.8,7.6,23.1,12.5     c1.6,1.1,3.2,2.3,4.8,3.4c4.3,3-1.9-1.9-2.4-1.9c0.6,0,2.1,1.7,2.5,2.1c3.4,2.8,6.6,5.7,9.7,8.8c2.9,2.9,5.7,6,8.4,9.2     c0.7,0.8,1.4,1.7,2.1,2.5c2.3,2.7-4.6-6.2-1.9-2.4c1.3,1.8,2.6,3.5,3.8,5.3c4.9,7.3,9,15.1,12.5,23.1c-1-2.4-2-4.8-3-7.2     c4.7,11.2,7.8,22.9,9.5,35c-0.4-2.7-0.7-5.3-1.1-8c1.5,12,1.5,24,0,36c0.4-2.7,0.7-5.3,1.1-8c-1.6,12-4.8,23.7-9.5,35     c1-2.4,2-4.8,3-7.2c-3.4,8.1-7.6,15.8-12.5,23.1c-1.1,1.6-2.3,3.2-3.4,4.8c-3,4.3,1.9-1.9,1.9-2.4c0,0.6-1.7,2.1-2.1,2.5     c-2.8,3.4-5.7,6.6-8.8,9.7c-2.9,2.9-6,5.7-9.2,8.4c-0.8,0.7-1.7,1.4-2.5,2.1c-2.7,2.3,6.2-4.6,2.4-1.9c-1.8,1.3-3.5,2.6-5.3,3.8     c-7.3,4.9-15.1,9-23.1,12.5c2.4-1,4.8-2,7.2-3c-11.2,4.7-22.9,7.8-35,9.5c2.7-0.4,5.3-0.7,8-1.1     C523.9,444,517.9,444.4,511.9,444.4c-15.7,0.1-30.7,13.7-30,30c0.7,16.2,13.2,30.1,30,30c33.3-0.2,67.3-10,94.5-29.4     c29.1-20.7,50.5-48.5,62.9-82c23.3-63.2,2.7-139.9-49.5-182.5c-28-22.9-60.6-36.3-96.7-39.2c-33.4-2.7-68.3,6-96.9,23.2     c-27.8,16.8-51.7,42.3-65.1,72c-15.1,33.6-19.5,69.6-12.4,105.9c12.9,64.9,68.9,119.5,134.5,129.5c9.5,1.5,19,2.6,28.7,2.6     c15.7,0.1,30.7-13.9,30-30C541.1,458.1,528.7,444.5,511.9,444.4z"></path></g></g></g></svg>