<svg height='300px' width='300px'  fill="#000000" xmlns="http://www.w3.org/2000/svg" data-name="Layer 1" viewBox="0 0 100 100" x="0px" y="0px"><title>Artboard 22</title><path d="M49.11,58.56a8.39,8.39,0,1,0-8.39-8.39A8.4,8.4,0,0,0,49.11,58.56Zm0-14.78a6.39,6.39,0,1,1-6.39,6.39A6.4,6.4,0,0,1,49.11,43.78Z"></path><path d="M49.11,51.17h2.78a1,1,0,0,0,0-2H50.11V46.74a1,1,0,0,0-2,0v3.43A1,1,0,0,0,49.11,51.17Z"></path><path d="M58.24,92.43a1,1,0,0,0,1-1V62.83h1.54a1,1,0,0,0,1-1V38.5a1,1,0,0,0-1-1H59l-3.65-7.78V19.5s0,0,0,0a1,1,0,0,0-.08-.43L50,7.5a1,1,0,0,0-1.82,0L43,19a1,1,0,0,0-.08.43s0,0,0,0V29.72L39.21,37.5H37.44a1,1,0,0,0-1,1V61.83a1,1,0,0,0,1,1H39v28.6a1,1,0,0,0,2,0V62.83H57.24v28.6A1,1,0,0,0,58.24,92.43ZM44.87,20.5h8.48V29H44.87Zm4.24-10.17,3.71,8.17H45.4ZM44.48,31h9.25l3.06,6.52H41.42Zm-6,8.52H59.78V60.83H38.44Z"></path><path d="M47.29,22a1,1,0,0,0-1,1v3.48a1,1,0,1,0,2,0V23A1,1,0,0,0,47.29,22Z"></path><path d="M50.92,22a1,1,0,0,0-1,1v3.48a1,1,0,1,0,2,0V23A1,1,0,0,0,50.92,22Z"></path><path d="M43.67,67V91.43a1,1,0,0,0,2,0V67a1,1,0,0,0-2,0Z"></path><path d="M48.11,67V91.43a1,1,0,1,0,2,0V67a1,1,0,0,0-2,0Z"></path><path d="M52.54,67V91.43a1,1,0,0,0,2,0V67a1,1,0,0,0-2,0Z"></path></svg>