<svg height='300px' width='300px'  fill="#000000" xmlns="http://www.w3.org/2000/svg" viewBox="0 0 100 100" x="0px" y="0px"><path d="M45.46631,34.91211h-.709V32.68848h.709Zm6.66895-2.22363h-.709v2.22363h.709Zm-2.93164,2.22363h.709V32.68848h-.709Zm4.4458,0h.709V32.68848h-.709Zm-5.96-2.22363h-.709v2.22363h.709ZM45.46631,21.94336h-.709v4.45605h.709Zm6.66895,0h-.709v4.45605h.709Zm-2.22314,0h-.709v4.45605h.709Zm4.4458,0h-.709v4.45605h.709Zm-6.66846,0h-.709v4.45605h.709Zm-2.93164,8.55176h.709V28.94336h-.709Zm7.37744-1.55176h-.709v1.55176h.709Zm-2.93164,1.55176h.709V28.94336h-.709Zm4.4458,0h.709V28.94336h-.709Zm-5.96-1.55176h-.709v1.55176h.709Zm-2.22314,8.19141h-.709v2.22266h.709Zm6.66895,0h-.709v2.22266h.709Zm-2.93164,2.22266h.709V37.13477h-.709Zm4.4458,0h.709V37.13477h-.709Zm-5.96-2.22266h-.709v2.22266h.709Zm-2.22314,4.44531h-.709v2.22363h.709Zm6.66895,0h-.709v2.22363h.709Zm-2.93164,2.22363h.709V41.58008h-.709Zm4.4458,0h.709V41.58008h-.709Zm-5.96-2.22363h-.709v2.22363h.709Zm-2.22314,4.44629h-.709V48.249h.709Zm6.66895,0h-.709V48.249h.709ZM49.20361,48.249h.709V46.02637h-.709Zm4.4458,0h.709V46.02637h-.709Zm-5.96-2.22266h-.709V48.249h.709ZM73.5752,72.82813h-.709v2.22266h.709Zm-2.22266,0h-.709v2.22266h.709Zm-5.27734,0h-.709v2.22266h.709Zm2.22266,0h-.709v2.22266h.709Zm8.332,0h-.709v2.22266h.709Zm2.22266,0h-.709v2.22266h.709Zm3.05469,0h-.709v2.22266h.709Zm-8.332,4.37012h-.709V79.4209h.709Zm-2.22266,0h-.709V79.4209h.709Zm-5.27734,0h-.709V79.4209h.709Zm2.22266,0h-.709V79.4209h.709Zm8.332,0h-.709V79.4209h.709Zm2.22266,0h-.709V79.4209h.709ZM73.5752,81.61816h-.709V83.8418h.709Zm-2.22266,0h-.709V83.8418h.709Zm-5.27734,0h-.709V83.8418h.709Zm2.22266,0h-.709V83.8418h.709ZM45.46631,68.25586h-.709v2.22266h.709Zm6.66895,0h-.709v2.22266h.709Zm-2.93164,2.22266h.709V68.25586h-.709Zm4.4458,0h.709V68.25586h-.709Zm-5.96-2.22266h-.709v2.22266h.709Zm-2.22314,4.44531h-.709V74.9248h.709Zm6.66895,0h-.709V74.9248h.709ZM49.20361,74.9248h.709V72.70117h-.709Zm4.4458,0h.709V72.70117h-.709Zm-5.96-2.22363h-.709V74.9248h.709Zm-2.22314,4.44629h-.709v2.22266h.709Zm6.66895,0h-.709v2.22266h.709Zm-2.93164,2.22266h.709V77.14746h-.709Zm4.4458,0h.709V77.14746h-.709Zm-5.96-2.22266h-.709v2.22266h.709Zm-2.22314,4.44531h-.709v2.22363h.709Zm6.66895,0h-.709v2.22363h.709Zm-2.93164,2.22363h.709V81.59277h-.709Zm4.4458,0h.709V81.59277h-.709Zm-5.96-2.22363h-.709v2.22363h.709ZM45.46631,50.47168h-.709v2.22363h.709Zm6.66895,0h-.709v2.22363h.709Zm-2.93164,2.22363h.709V50.47168h-.709Zm4.4458,0h.709V50.47168h-.709Zm-5.96-2.22363h-.709v2.22363h.709ZM45.46631,54.918h-.709v2.22266h.709Zm6.66895,0h-.709v2.22266h.709Zm-2.93164,2.22266h.709V54.918h-.709Zm4.4458,0h.709V54.918h-.709Zm-5.96-2.22266h-.709v2.22266h.709Zm-2.22314,4.44629h-.709v2.22266h.709Zm6.66895,0h-.709v2.22266h.709Zm-2.93164,2.22266h.709V59.36426h-.709Zm4.4458,0h.709V59.36426h-.709Zm-5.96-2.22266h-.709v2.22266h.709Zm-2.22314,4.44531h-.709v2.22266h.709Zm6.66895,0h-.709v2.22266h.709Zm-2.93164,2.22266h.709V63.80957h-.709Zm4.4458,0h.709V63.80957h-.709Zm-5.96-2.22266h-.709v2.22266h.709ZM25.54053,75.05078h.709V72.82813h-.709Zm2.22266,0h.709V72.82813h-.709Zm5.27734,0h.709V72.82813h-.709Zm-2.22266,0h.709V72.82813h-.709Zm-8.332,0h.709V72.82813h-.709Zm-2.22266,0h.709V72.82813h-.709Zm-3.05469,0h.709V72.82813h-.709Zm8.332,4.37012h.709V77.19824h-.709Zm2.22266,0h.709V77.19824h-.709Zm5.27734,0h.709V77.19824h-.709Zm-2.22266,0h.709V77.19824h-.709Zm-8.332,0h.709V77.19824h-.709Zm-2.22266,0h.709V77.19824h-.709Zm5.27734,4.4209h.709V81.61816h-.709Zm2.22266,0h.709V81.61816h-.709Zm5.27734,0h.709V81.61816h-.709Zm-2.22266,0h.709V81.61816h-.709ZM87.3877,57.69141a37.82984,37.82984,0,1,1-74.54962-9.085h-.74384a3.66553,3.66553,0,1,1,.94141-7.21,4.80265,4.80265,0,0,1,3.704-2.52509A37.92051,37.92051,0,0,1,40.89795,20.86249V17.14258h1.63672V13.92285h.20087l3.99982-4.27148h2.46777V5.22656h.709v4.4248h2.46826l3.99982,4.27148h.20087v3.21973h1.63672V20.8678a37.52069,37.52069,0,0,1,10.23151,4.0575,2.85714,2.85714,0,0,1,5.11224-.34229,2.22562,2.22562,0,0,1,2.67529,2.17676,2.219,2.219,0,0,1-2.08167,2.20837A37.68781,37.68781,0,0,1,87.3877,57.69141ZM68.03564,25.67773a1.29785,1.29785,0,1,0,0,2.5957h5.97852a1.51367,1.51367,0,0,0,0-3.02734,1.47286,1.47286,0,0,0-.5127.08984l-.31152.11426-.13477-.30273a2.15255,2.15255,0,0,0-4.062.377l-.09424.39941-.38184-.15234A1.29159,1.29159,0,0,0,68.03564,25.67773ZM43.70673,13.92285H55.409l-3.33624-3.5625H47.043Zm-.46307,3.21973H55.87207V14.63184H43.24365Zm-1.63672,2.22266H57.50879V17.85156H41.60693Zm14.97412,6.37012V85.68457H59.146V25.73535Zm-14.97412-.709h1.63672v60.6582H55.87207V25.02637h1.63672V20.07422H41.60693Zm-1.63672.709V85.68457h2.56445V25.73535ZM22.69092,47.89746a2.57373,2.57373,0,1,0,0-5.14746,2.54318,2.54318,0,0,0-.95557.18555l-.38281.15527-.09521-.40234a4.08751,4.08751,0,0,0-7.7124-.71875l-.13428.30078-.30957-.1123a2.95766,2.95766,0,1,0-1.00684,5.73926Zm-8.92273,19.624H35.26367V33.03516h3.99756V25.02637h1.63672V21.59448A37.20862,37.20862,0,0,0,17.57532,38.85754a4.76285,4.76285,0,0,1,4.26843,3.29578,3.20848,3.20848,0,0,1,.84717-.1123,3.28271,3.28271,0,1,1,0,6.56543H13.56464a37.05665,37.05665,0,0,0,.20355,18.915ZM35.97266,33.74414V85.68457h3.28857V33.74414ZM32.17334,86.39355H26.046a37.25762,37.25762,0,0,0,6.12732,4.08331Zm.35449-.709h2.73584V68.23047H13.97c.20715.69812.42889,1.38983.67542,2.07031h20.6051v.709H14.91754A37.18831,37.18831,0,0,0,22.48584,83.051V81.61816h.709v2.17645c.64984.65625,1.32806,1.28326,2.025,1.89h7.308Zm8.73193,6.06934a1.64429,1.64429,0,0,0-3.28857,0v1.1969q1.61325.53146,3.28857.91492Zm6.62842,0a1.64429,1.64429,0,0,0-3.28857,0v2.71765c1.08295.14526,2.17853.24915,3.28857.29858Zm6.62793,0a1.644,1.644,0,0,0-3.28809,0v3.01624c1.10992-.04944,2.20526-.15326,3.28809-.29852Zm6.62842,0a1.64429,1.64429,0,0,0-3.28857,0v2.11194q1.67413-.384,3.28857-.915Zm5.08936-5.36035H32.88232v4.4469a36.89225,36.89225,0,0,0,4.37988,1.87v-.95654a2.35327,2.35327,0,0,1,4.70654,0v2.27588c.63519.13245,1.27533.25085,1.92188.35028V91.75391a2.35327,2.35327,0,0,1,4.70654,0v3.03418c.32031.00818.63867.02441.96094.02441s.64063-.01624.96094-.02441V91.75391a2.353,2.353,0,0,1,4.70605,0v2.62622c.64648-.09949,1.28674-.21771,1.92188-.35022v-2.276a2.35327,2.35327,0,0,1,4.70654,0v.9566a36.90066,36.90066,0,0,0,4.38037-1.87024Zm-3.09082-.709V33.74414H59.855V85.68457Zm9.92676.709h-6.127v4.08313A37.25739,37.25739,0,0,0,73.06982,86.39355ZM85.14575,68.23047H63.85205v17.4541h10.044c.69684-.60669,1.37506-1.2337,2.02484-1.88989V81.61816h.709v1.43292a37.189,37.189,0,0,0,7.5683-12.04132H63.86572v-.709H84.47034C84.71686,69.6203,84.9386,68.92859,85.14575,68.23047Zm.20178-.709A37.08144,37.08144,0,0,0,73.087,28.98242H68.03564a1.99408,1.99408,0,0,1-.71313-3.86163A36.811,36.811,0,0,0,58.21777,21.601v3.42535H59.855v8.00879h3.99707V57.73279a2.95607,2.95607,0,0,1,.95654.0553,3.8753,3.8753,0,0,1,7.06592.5957,2.67457,2.67457,0,1,1,.62451,5.27539H64.10156c-.08331,0-.16608-.01782-.24951-.02484v3.88715Zm-21.246-4.57129H72.499a1.96582,1.96582,0,0,0,0-3.93164,1.92416,1.92416,0,0,0-.72949.14258l-.3833.15625L71.291,58.915a3.16621,3.16621,0,0,0-5.97412-.55664l-.13428.30176-.31055-.11328a2.26709,2.26709,0,0,0-1.02-.09772v4.47607A2.22539,2.22539,0,0,0,64.10156,62.9502Z"></path></svg>