<svg height='300px' width='300px'  fill="#000000" xmlns="http://www.w3.org/2000/svg" xmlns:xlink="http://www.w3.org/1999/xlink" version="1.1" x="0px" y="0px" viewBox="0 0 100 100" enable-background="new 0 0 100 100" xml:space="preserve"><path d="M62.397,31.082c-0.512-0.219-1.096,0.015-1.315,0.521c-0.219,0.507,0.014,1.095,0.521,1.315C73.205,37.939,81,49.224,81,61  c0,11.01-6.085,20.9-15,26.411V75c0-0.553-0.447-1-1-1V61c0-0.553-0.447-1-1-1h-2V50c0-0.552-0.447-1-1-1h-1v-4c0-0.552-0.447-1-1-1  h-1v-2c0-0.552-0.447-1-1-1h-1.272C55.236,39.291,54,33.923,54,23c0-0.552-0.447-1-1-1h-2V7c0-0.552-0.448-1-1-1s-1,0.448-1,1v15h-2  c-0.552,0-1,0.448-1,1c0,10.926-1.236,16.295-1.728,18H43c-0.552,0-1,0.448-1,1v2h-1c-0.552,0-1,0.448-1,1v4h-1  c-0.552,0-1,0.448-1,1v10h-2c-0.552,0-1,0.447-1,1v13c-0.552,0-1,0.447-1,1v12.379C25.083,81.862,19,71.99,19,61  c0-11.764,7.795-23.049,19.398-28.083c0.507-0.22,0.739-0.809,0.52-1.315c-0.22-0.506-0.81-0.74-1.315-0.52  C25.279,36.428,17,48.451,17,61c0,17.888,15.136,33,33.051,33C68.22,94,83,79.196,83,61C83,48.438,74.721,36.416,62.397,31.082z   M56,76h8v12c0,0.174,0.056,0.328,0.133,0.471c-2.539,1.34-5.271,2.338-8.133,2.923V76z M63,74h-7V62h7V74z M52.003,24  c0.065,9.547,1.061,14.748,1.647,17H51V24H52.003z M47.997,24H49v17h-2.65C46.937,38.748,47.931,33.547,47.997,24z M44,43h1h10h1v1  H44V43z M42,46h16v3H42V46z M37,62h7v12h-7V62z M36,88V76h8v15.378c-2.858-0.59-5.584-1.592-8.119-2.929  C35.951,88.313,36,88.164,36,88z M49,91.972V57c0-0.553-0.448-1-1-1s-1,0.447-1,1v34.842c-0.335-0.034-0.667-0.082-1-0.128V75V61  c0-0.553-0.448-1-1-1h-5v-9h20v9h-5c-0.553,0-1,0.447-1,1v14v16.726c-0.332,0.045-0.665,0.09-1,0.123V57c0-0.553-0.447-1-1-1  s-1,0.447-1,1v34.975C50.684,91.985,50.369,92,50.051,92C49.699,92,49.35,91.985,49,91.972z M61,63c0.553,0,1,0.447,1,1v8  c0,0.553-0.447,1-1,1s-1-0.447-1-1v-8C60,63.447,60.447,63,61,63z M59,64v8c0,0.553-0.447,1-1,1s-1-0.447-1-1v-8  c0-0.553,0.447-1,1-1S59,63.447,59,64z M59,78v10c0,0.553-0.447,1-1,1s-1-0.447-1-1V78c0-0.553,0.447-1,1-1S59,77.447,59,78z M62,78  v9c0,0.553-0.447,1-1,1s-1-0.447-1-1v-9c0-0.553,0.447-1,1-1S62,77.447,62,78z M43,57v1c0,0.553-0.448,1-1,1s-1-0.447-1-1v-1  c0-0.553,0.448-1,1-1S43,56.447,43,57z M57,58v-1c0-0.553,0.447-1,1-1s1,0.447,1,1v1c0,0.553-0.447,1-1,1S57,58.553,57,58z M57,54  v-1c0-0.553,0.447-1,1-1s1,0.447,1,1v1c0,0.553-0.447,1-1,1S57,54.553,57,54z M54,58v-1c0-0.553,0.447-1,1-1s1,0.447,1,1v1  c0,0.553-0.447,1-1,1S54,58.553,54,58z M54,54v-1c0-0.553,0.447-1,1-1s1,0.447,1,1v1c0,0.553-0.447,1-1,1S54,54.553,54,54z M51,54  v-1c0-0.553,0.447-1,1-1s1,0.447,1,1v1c0,0.553-0.447,1-1,1S51,54.553,51,54z M49,53v1c0,0.553-0.448,1-1,1s-1-0.447-1-1v-1  c0-0.553,0.448-1,1-1S49,52.447,49,53z M43,53v1c0,0.553-0.448,1-1,1s-1-0.447-1-1v-1c0-0.553,0.448-1,1-1S43,52.447,43,53z M46,53  v1c0,0.553-0.448,1-1,1s-1-0.447-1-1v-1c0-0.553,0.448-1,1-1S46,52.447,46,53z M46,57v1c0,0.553-0.448,1-1,1s-1-0.447-1-1v-1  c0-0.553,0.448-1,1-1S46,56.447,46,57z M43,78v10c0,0.553-0.448,1-1,1s-1-0.447-1-1V78c0-0.553,0.448-1,1-1S43,77.447,43,78z M40,78  v9c0,0.553-0.448,1-1,1s-1-0.447-1-1v-9c0-0.553,0.448-1,1-1S40,77.447,40,78z M43,64v8c0,0.553-0.448,1-1,1s-1-0.447-1-1v-8  c0-0.553,0.448-1,1-1S43,63.447,43,64z M40,64v8c0,0.553-0.448,1-1,1s-1-0.447-1-1v-8c0-0.553,0.448-1,1-1S40,63.447,40,64z"></path></svg>