<svg height='300px' width='300px'  fill="#000000" xmlns="http://www.w3.org/2000/svg" xmlns:xlink="http://www.w3.org/1999/xlink" version="1.1" x="0px" y="0px" viewBox="0 0 100 100" enable-background="new 0 0 100 100" xml:space="preserve"><g><path fill="#000000" d="M74.013,62.532h2.692c0.146,0,0.264-0.118,0.264-0.264v-6.56c-0.013-0.88-0.733-1.587-1.61-1.587   c-0.007,0-0.015,0-0.022,0c-0.878,0.013-1.575,0.71-1.587,1.591v6.556C73.749,62.414,73.867,62.532,74.013,62.532z M74.277,55.715   c0.008-0.59,0.477-1.058,1.067-1.067c0.005,0,0.01,0,0.015,0c0.59,0,1.074,0.475,1.082,1.063v6.292h-2.164V55.715z M70.273,54.121   c-0.878,0.013-1.575,0.71-1.587,1.591v6.556c0,0.146,0.118,0.264,0.264,0.264h2.691c0.146,0,0.264-0.118,0.264-0.264v-6.56   C71.893,54.821,71.163,54.13,70.273,54.121z M71.377,62.004h-2.163v-6.288c0.008-0.59,0.477-1.058,1.067-1.067   c0.005,0,0.01,0,0.015,0c0.59,0,1.074,0.475,1.082,1.063V62.004z M50,5C25.187,5,5,25.187,5,50s20.187,45,45,45s45-20.187,45-45   S74.813,5,50,5z M27.654,39.013v16.051h-0.812V39.013H27.654z M89.928,67.222c-0.422,0.974-0.881,1.926-1.371,2.862v-3.285   C89.015,66.939,89.472,67.085,89.928,67.222z M88.407,70.378c-0.887,1.665-1.882,3.261-2.97,4.789v-9.332   c0.99,0.315,1.98,0.614,2.97,0.917V70.378z M85.285,75.379c-0.907,1.257-1.875,2.468-2.908,3.62h-0.062V64.813   c0.99,0.327,1.975,0.658,2.97,0.975V75.379z M82.165,78.999h-1.651V65.496c0-0.146-0.118-0.264-0.264-0.264h-0.867v-1.391   c0.921,0.315,1.853,0.616,2.782,0.923V78.999z M76.614,84.361V65.76h3.372v15.697C78.912,82.481,77.787,83.45,76.614,84.361z    M58.321,92.684H41.679c-0.532-0.104-1.059-0.221-1.585-0.344l0.147-1.169h19.517l0.147,1.169   C59.38,92.463,58.853,92.58,58.321,92.684z M24.747,85.375c-1.436-1.028-2.811-2.134-4.11-3.325h4.11V85.375z M25.275,72.17h3.427   h0.519v16.026c-1.362-0.744-2.676-1.565-3.946-2.446V72.17z M26.058,55.592h0.519h1.86v16.051h-2.379V55.592z M41.173,79.527   l-0.251,1.995H29.749v-1.995H41.173z M42.21,39.023l0.205-0.094h3.859L42.21,71.272V39.023z M65.14,79.527v1.995h-6.062   l-0.251-1.995H65.14z M58.275,79.367h-16.55l0.19-1.514h16.17L58.275,79.367z M58.294,79.518l0.19,1.513H41.516l0.19-1.513H58.294z    M41.497,81.183h17.007l0.19,1.514H41.306L41.497,81.183z M40.451,89.506h19.099l0.19,1.514H40.26L40.451,89.506z M40.47,89.355   l0.19-1.514h18.68l0.19,1.514H40.47z M40.679,87.69l0.19-1.514h18.262l0.19,1.514H40.679z M40.888,86.026l0.19-1.514h17.843   l0.19,1.514H40.888z M41.097,84.361l0.19-1.514h17.425l0.19,1.514H41.097z M46.308,42.897h7.383l0.19,1.513h-7.764L46.308,42.897z    M46.099,44.562h7.802l0.19,1.514h-8.182L46.099,44.562z M45.89,46.226h8.22l0.19,1.514h-8.6L45.89,46.226z M45.681,47.891h8.638   l0.19,1.514H45.49L45.681,47.891z M45.471,49.556h9.057l0.19,1.514h-9.437L45.471,49.556z M45.262,51.22h9.475l0.19,1.514h-9.856   L45.262,51.22z M45.053,52.885h9.894l0.19,1.514H44.863L45.053,52.885z M44.844,54.55h10.312l0.19,1.513H44.654L44.844,54.55z    M44.635,56.214h10.73l0.19,1.514H44.444L44.635,56.214z M44.425,57.879h11.149l0.19,1.514H44.235L44.425,57.879z M44.216,59.543   h11.567l0.19,1.514H44.026L44.216,59.543z M44.007,61.208h11.986l0.19,1.514H43.817L44.007,61.208z M43.798,62.872h12.404   l0.19,1.514H43.608L43.798,62.872z M43.589,64.537h12.823l0.19,1.514H43.398L43.589,64.537z M43.379,66.202H56.62l0.19,1.514   H43.189L43.379,66.202z M43.17,67.866H56.83l0.19,1.513H42.98L43.17,67.866z M42.961,69.531h14.078l0.19,1.514H42.771   L42.961,69.531z M42.752,71.195h14.496l0.19,1.514H42.562L42.752,71.195z M42.543,72.86h14.915l0.19,1.514H42.352L42.543,72.86z    M42.333,74.525h15.333l0.19,1.514H42.143L42.333,74.525z M57.79,39.023v32.252l-4.065-32.346h3.859L57.79,39.023z M53.673,42.746   h-7.345l0.167-1.325h7.012L53.673,42.746z M42.124,76.189h15.751l0.19,1.514H41.934L42.124,76.189z M29.749,82.05h11.107   l-1.278,10.17c-3.457-0.854-6.751-2.122-9.829-3.749V82.05z M59.144,82.05h5.996v8.718c-1.534,0.571-3.109,1.055-4.718,1.452   L59.144,82.05z M65.668,65.76h3.372v23.333c-1.098,0.537-2.225,1.022-3.372,1.467V65.76z M66.799,51.659h5.953v13.573h-5.953   V51.659z M78.855,51.659v13.573h-5.952V51.659H78.855z M69.191,65.76h3.561v21.287c-1.152,0.71-2.341,1.366-3.561,1.968V65.76z    M72.903,65.76h3.56v18.72c-1.144,0.88-2.331,1.705-3.56,2.47V65.76z M72.903,51.13v-4.841h4.822l0.001,3.999   c0.03,0.32,0.16,0.611,0.357,0.842H72.903z M72.752,51.13h-5.183c0.199-0.235,0.33-0.534,0.361-0.867v-3.975h4.822V51.13z    M66.271,65.232h-0.867c-0.146,0-0.264,0.118-0.264,0.264v13.503h-1.605V57.902c0.912,0.372,1.824,0.745,2.736,1.107V65.232z    M63.384,78.999h-2.97V56.607c0.989,0.416,1.975,0.827,2.97,1.233V78.999z M60.263,78.999h-1.502l-0.443-3.521V55.722   c0.644,0.277,1.296,0.548,1.945,0.822V78.999z M53.706,38.778l-0.216-1.72l3.764,1.72H53.706z M53.44,40.893H46.56L50,13.524   L53.44,40.893z M46.294,38.778h-3.548l3.764-1.72L46.294,38.778z M41.682,75.475l-0.443,3.524h-0.737V47.335   c0.394,0.202,0.787,0.408,1.18,0.607V75.475z M40.351,78.999h-2.97V45.713c0.989,0.522,1.979,1.035,2.97,1.544V78.999z    M37.23,78.999h-2.97V44.045c0.987,0.536,1.978,1.064,2.97,1.588V78.999z M34.108,78.999h-2.97V42.329   c0.985,0.55,1.977,1.093,2.97,1.633V78.999z M30.987,78.999h-1.239v-7.092c0-0.146-0.118-0.264-0.264-0.264h-0.519V55.328   c0-0.146-0.118-0.264-0.264-0.264h-0.519v-14.41c0.93,0.534,1.865,1.064,2.805,1.59V78.999z M26.313,55.064h-0.519   c-0.146,0-0.264,0.118-0.264,0.264v16.315h-0.519c-0.146,0-0.264,0.118-0.264,0.264v7.092h-1.214V42.216   c0.929-0.52,1.86-1.036,2.781-1.564V55.064z M23.382,78.999h-2.97V43.941c0.995-0.541,1.983-1.089,2.97-1.64V78.999z    M20.261,78.999h-2.638c-0.113-0.126-0.221-0.256-0.332-0.383v-33c0.994-0.525,1.983-1.058,2.97-1.594V78.999z M17.139,78.442   c-1.058-1.22-2.052-2.496-2.97-3.829V47.234c0.992-0.509,1.984-1.017,2.97-1.537V78.442z M14.018,74.401   c-1.102-1.619-2.091-3.32-2.97-5.085V48.827c0.994-0.495,1.98-1.009,2.97-1.516V74.401z M10.897,69.021   c-1.24-2.539-2.24-5.215-2.97-7.999V50.345c0.991-0.479,1.983-0.953,2.97-1.444V69.021z M7.776,60.407   c-0.744-3.018-1.167-6.158-1.242-9.385c0.415-0.198,0.827-0.404,1.242-0.604V60.407z M18.106,79.527h6.641v1.995h-4.664   C19.404,80.877,18.742,80.214,18.106,79.527z M42.522,92.835h14.956c-2.431,0.423-4.927,0.657-7.478,0.657   C47.449,93.492,44.954,93.258,42.522,92.835z M80.514,80.953v-1.427h1.381C81.444,80.013,80.985,80.489,80.514,80.953z    M90.139,66.735c-3.595-1.08-7.208-2.235-10.756-3.45v-11.89c0-0.065-0.026-0.123-0.065-0.169   c-0.003-0.004-0.004-0.008-0.007-0.011c-0.04-0.042-0.093-0.068-0.153-0.077c-0.005-0.001-0.008-0.006-0.013-0.007   c-0.473-0.045-0.848-0.42-0.892-0.868v-4.239c0-0.146-0.118-0.264-0.264-0.264H67.666c-0.146,0-0.264,0.118-0.264,0.264   l0.001,4.214c-0.045,0.473-0.42,0.848-0.893,0.893c-0.005,0.001-0.008,0.006-0.013,0.007c-0.06,0.009-0.114,0.034-0.153,0.077   c-0.003,0.003-0.004,0.007-0.007,0.011c-0.039,0.046-0.065,0.104-0.065,0.169v7.044c-2.661-1.056-5.333-2.16-7.953-3.29V38.854   c0-0.103-0.06-0.197-0.154-0.24l-4.752-2.172l-3.087-24.559c-0.017-0.132-0.129-0.231-0.262-0.231h-0.128   c-0.133,0-0.245,0.099-0.262,0.231l-3.087,24.559l-4.751,2.172c-0.094,0.043-0.154,0.137-0.154,0.24v8.494   c-4.547-2.308-9.086-4.762-13.5-7.301v-1.298c0-0.146-0.118-0.264-0.264-0.264h-1.341c-0.146,0-0.264,0.118-0.264,0.264v1.297   c-6.434,3.701-13.088,7.191-19.794,10.396C6.518,50.294,6.508,50.148,6.508,50C6.508,26.019,26.019,6.508,50,6.508   c23.981,0,43.491,19.51,43.491,43.491C93.492,55.928,92.296,61.58,90.139,66.735z"></path></g></svg>