<?xml version="1.0" encoding="utf-8"?>
<!-- Generator: Adobe Illustrator 23.0.3, SVG Export Plug-In . SVG Version: 6.00 Build 0)  -->
<svg version="1.1"
	 id="svg60417" xmlns:cc="http://creativecommons.org/ns#" xmlns:dc="http://purl.org/dc/elements/1.1/" xmlns:rdf="http://www.w3.org/1999/02/22-rdf-syntax-ns#" xmlns:svg="http://www.w3.org/2000/svg"
	 xmlns="http://www.w3.org/2000/svg" xmlns:xlink="http://www.w3.org/1999/xlink" x="0px" y="0px" viewBox="0 0 1024 768"
	 style="enable-background:new 0 0 1024 768;" xml:space="preserve">
<style type="text/css">
	.st0{fill:#FFFFFF;}
</style>
<g id="logo-group">
	<g id="title">
		<path id="path60425" class="st0" d="M282.5,428h11.2v-67.1h-11.2V428z M252,339.8v9.9h72.1v-9.9H252z"/>
		<path id="path60427" class="st0" d="M382.6,394.2c2.7-0.6,5.3-1.9,7.6-3.6c2.2-1.6,4.2-3.6,5.8-6c1.6-2.2,2.9-4.9,3.7-7.7
			s1.4-5.8,1.4-9c0-3.5-0.8-6.8-2-10.2c-1.4-3.4-3.2-6.3-5.6-9.1s-5.2-4.9-8.5-6.5c-3.2-1.6-6.8-2.5-10.7-2.5h-37.8V428h11.2v-31.7
			H359l-6.2-9.9h-5v-36.7h26c2.1,0,4.1,0.5,6.1,1.5s3.6,2.2,5.1,4c1.5,1.7,2.6,3.6,3.5,5.8c0.9,2.2,1.4,4.6,1.4,7
			c0,2.5-0.4,4.7-1.1,7c-0.9,2.4-1.9,4.2-3.1,6c-1.4,1.7-3,3.1-4.9,4c-1.9,1-4,1.5-6.2,1.5h-9.8l6.5,9.9l20.1,31.7H404L382.6,394.2z
			"/>
		<path id="path60429" class="st0" d="M418.2,428h11.2v-88.2h-11.2V428z"/>
		<path id="path60431" class="st0" d="M512,357.8c-1.4-3.4-3.2-6.3-5.6-9.1s-5.2-4.9-8.5-6.5c-3.2-1.6-6.8-2.5-10.7-2.5h-36.8v35.3
			h11.2v-25.4h25c2.1,0,4.1,0.5,6.1,1.4c1.9,1,3.6,2.2,5.1,3.9c1.5,1.7,2.6,3.6,3.5,5.8c0.9,2.2,1.4,4.7,1.4,7.2s-0.4,4.9-1.1,7.1
			c-0.9,2.4-1.9,4.2-3.1,6c-1.4,1.7-3,3-4.9,4c-1.9,1-4,1.4-6.2,1.4h-36.9V428h11.2v-31.7H488c3.9,0,7.3-0.8,10.6-2.4
			c3.2-1.5,6-3.6,8.2-6.3c2.2-2.6,4-5.6,5.3-9.1c1.2-3.4,1.9-6.8,1.9-10.6C514,364.5,513.2,361.1,512,357.8L512,357.8z"/>
		<path id="path60433" class="st0" d="M579.7,358.3l5.2-9.1c-3.7-3-8.1-5.5-12.8-7.3c-4.8-1.7-10.2-2.7-16.2-2.7
			c-4.6,0-8.8,0.6-12.7,1.7c-4,1.1-7.3,2.7-10.1,5c-2.9,2.2-5.1,5-6.6,8.2c-1.6,3.2-2.4,7-2.4,11.2c0,3.5,0.5,6.5,1.7,9
			c1.1,2.5,2.9,4.6,5.1,6.3s5.1,3.2,8.6,4.5c3.4,1.2,7.3,2.5,11.8,3.5c4,1,7.6,2,10.8,3c3.2,1,5.8,2,8.1,3.2
			c2.1,1.2,3.7,2.7,4.8,4.5s1.7,3.7,1.7,6.2c0,4.5-1.7,7.8-5.2,10.1c-3.5,2.2-8.5,3.4-14.7,3.4c-3.5,0-6.7-0.2-9.8-1s-6-1.6-8.7-2.7
			c-2.7-1.1-5.1-2.4-7.2-3.9c-2.1-1.4-3.8-2.7-5.1-4.2l-5.3,9.4c5,4.1,10.4,7.2,16.5,9.3c6.1,2.1,12.5,3.1,19.4,3.1
			c4.5,0,8.7-0.4,12.7-1.4c3.8-1,7.2-2.5,10.1-4.5c2.9-2,5.1-4.6,6.8-7.7c1.6-3.1,2.5-6.8,2.5-11.1c0-4-0.8-7.3-2.1-10.1s-3.4-5-6-7
			c-2.6-1.9-5.7-3.5-9.4-4.7s-7.8-2.5-12.3-3.5c-4-0.9-7.5-1.7-10.3-2.6c-3-0.8-5.3-1.7-7.3-2.9s-3.4-2.5-4.2-4.1
			c-1-1.5-1.4-3.5-1.4-6c0-4.5,1.5-8,4.7-10.6c3.2-2.5,8.2-3.9,15.2-3.9c2.6,0,5.1,0.4,7.6,0.9c2.5,0.5,4.7,1.2,6.8,2.1
			c2,0.9,3.8,1.9,5.6,2.9C577.4,356,578.8,357.2,579.7,358.3L579.7,358.3z"/>
		<path id="path60435" class="st0" d="M603.7,418v9.9H664V418H603.7z M614.8,339.8h-11.2v67.1h11.2V339.8z"/>
		<path id="path60437" class="st0" d="M676.2,428h11.2v-88.2h-11.2V428z"/>
		<path id="path60439" class="st0" d="M770,357.8c-1.4-3.4-3.2-6.3-5.6-9.1s-5.2-4.9-8.5-6.5c-3.2-1.6-6.8-2.5-10.7-2.5h-36.8v35.3
			h11.2v-25.4h25c2.1,0,4.1,0.5,6.1,1.4c1.9,1,3.6,2.2,5.1,3.9c1.5,1.7,2.6,3.6,3.5,5.8s1.4,4.7,1.4,7.2s-0.4,4.9-1.1,7.1
			c-0.9,2.4-1.9,4.2-3.1,6c-1.4,1.7-3,3-4.8,4c-1.9,1-4,1.4-6.2,1.4h-36.9V428h11.2v-31.7H746c3.8,0,7.3-0.8,10.6-2.4
			c3.2-1.5,6-3.6,8.2-6.3c2.2-2.6,4-5.6,5.3-9.1c1.2-3.4,1.9-6.8,1.9-10.6C772,364.5,771.2,361.1,770,357.8L770,357.8z"/>
	</g>
</g>
</svg>
